<svg width="15" height="14" viewBox="0 0 15 14" fill="none" xmlns="http://www.w3.org/2000/svg">
<g clip-path="url(#clip0_287_48)">
<path d="M6.58506 3.64006L4.61164 1.36214C4.38414 1.09964 3.96706 1.10081 3.70281 1.36564L2.07998 2.99139C1.59698 3.47497 1.45873 4.19306 1.73814 4.76881C3.40742 8.22504 6.19484 11.0164 9.64873 12.6905C10.2239 12.9699 10.9414 12.8316 11.4244 12.3481L13.0624 10.7071C13.3278 10.4417 13.3284 10.0223 13.0636 9.79481L10.7769 7.83189C10.5377 7.62656 10.1661 7.65339 9.92639 7.89372L9.13073 8.69056C9.08999 8.73325 9.03637 8.76139 8.9781 8.77066C8.91983 8.77994 8.86012 8.76983 8.80814 8.74189C7.50757 7.99295 6.42872 6.91269 5.68148 5.61114C5.65349 5.55908 5.64336 5.49927 5.65263 5.4409C5.66191 5.38252 5.69007 5.3288 5.73281 5.28797L6.52615 4.49406C6.76648 4.25256 6.79273 3.87922 6.58506 3.63947V3.64006Z" stroke="#4B5563" stroke-width="2" stroke-linecap="round" stroke-linejoin="round"/>
</g>
<defs>
<clipPath id="clip0_287_48">
<rect width="14" height="14" fill="white" transform="translate(0.428589)"/>
</clipPath>
</defs>
</svg>
