<svg width="30" height="30" viewBox="0 0 30 30" fill="none" xmlns="http://www.w3.org/2000/svg">
<path d="M4.28592 2.30769V27.6923H17.1431V2.30769H4.28592ZM3.21449 0H18.2145C18.4987 0 18.7712 0.121566 18.9721 0.337954C19.173 0.554342 19.2859 0.847827 19.2859 1.15385V28.8462C19.2859 29.1522 19.173 29.4457 18.9721 29.662C18.7712 29.8784 18.4987 30 18.2145 30H3.21449C2.93033 30 2.65781 29.8784 2.45688 29.662C2.25595 29.4457 2.14307 29.1522 2.14307 28.8462V1.15385C2.14307 0.847827 2.25595 0.554342 2.45688 0.337954C2.65781 0.121566 2.93033 0 3.21449 0Z" fill="black"/>
<path d="M6.42857 6.92308H15V9.23077H6.42857V6.92308ZM6.42857 13.8462H15V16.1538H6.42857V13.8462ZM6.42857 20.7692H15V23.0769H6.42857V20.7692ZM19.2857 16.1538H23.5714V18.4615H19.2857V16.1538ZM19.2857 20.7692H23.5714V23.0769H19.2857V20.7692ZM0 27.6923H30V30H0V27.6923Z" fill="black"/>
<path d="M19.2859 11.5385V27.6923H25.7145V11.5385H19.2859ZM18.2145 9.23077H26.7859C27.0701 9.23077 27.3426 9.35234 27.5435 9.56873C27.7445 9.78512 27.8574 10.0786 27.8574 10.3846V28.8462C27.8574 29.1522 27.7445 29.4457 27.5435 29.6621C27.3426 29.8784 27.0701 30 26.7859 30H18.2145C17.9303 30 17.6578 29.8784 17.4569 29.6621C17.2559 29.4457 17.1431 29.1522 17.1431 28.8462V10.3846C17.1431 10.0786 17.2559 9.78512 17.4569 9.56873C17.6578 9.35234 17.9303 9.23077 18.2145 9.23077Z" fill="black"/>
</svg>
