<svg width="30" height="30" viewBox="0 0 30 30" fill="none" xmlns="http://www.w3.org/2000/svg">
<g clip-path="url(#clip0_36_92)">
<path fill-rule="evenodd" clip-rule="evenodd" d="M15 1.87501C13.0109 1.87501 11.1032 2.66519 9.6967 4.07171C8.29018 5.47823 7.5 7.38589 7.5 9.37501C7.5 11.3641 8.29018 13.2718 9.6967 14.6783C11.1032 16.0848 13.0109 16.875 15 16.875C16.9891 16.875 18.8968 16.0848 20.3033 14.6783C21.7098 13.2718 22.5 11.3641 22.5 9.37501C22.5 7.38589 21.7098 5.47823 20.3033 4.07171C18.8968 2.66519 16.9891 1.87501 15 1.87501ZM5.625 9.37501C5.62502 7.56079 6.15145 5.78554 7.14043 4.26458C8.12941 2.74361 9.53845 1.54228 11.1967 0.806269C12.8549 0.0702596 14.6911 -0.168802 16.4825 0.118078C18.2739 0.404958 19.9435 1.20545 21.289 2.42248C22.6344 3.63951 23.5979 5.22078 24.0624 6.97452C24.527 8.72825 24.4727 10.5791 23.9062 12.3026C23.3397 14.0261 22.2853 15.5482 20.8708 16.6843C19.4563 17.8204 17.7426 18.5217 15.9375 18.7031V22.5H19.6875C19.9361 22.5 20.1746 22.5988 20.3504 22.7746C20.5262 22.9504 20.625 23.1889 20.625 23.4375C20.625 23.6862 20.5262 23.9246 20.3504 24.1004C20.1746 24.2762 19.9361 24.375 19.6875 24.375H15.9375V29.0625C15.9375 29.3112 15.8387 29.5496 15.6629 29.7254C15.4871 29.9012 15.2486 30 15 30C14.7514 30 14.5129 29.9012 14.3371 29.7254C14.1613 29.5496 14.0625 29.3112 14.0625 29.0625V24.375H10.3125C10.0639 24.375 9.8254 24.2762 9.64959 24.1004C9.47377 23.9246 9.375 23.6862 9.375 23.4375C9.375 23.1889 9.47377 22.9504 9.64959 22.7746C9.8254 22.5988 10.0639 22.5 10.3125 22.5H14.0625V18.7031C11.75 18.4707 9.60633 17.3876 8.04727 15.664C6.48822 13.9404 5.62497 11.6991 5.625 9.37501Z" fill="#DB2777"/>
</g>
<defs>
<clipPath id="clip0_36_92">
<rect width="30" height="30" fill="white"/>
</clipPath>
</defs>
</svg>
