<svg width="30" height="30" viewBox="0 0 30 30" fill="none" xmlns="http://www.w3.org/2000/svg">
<path d="M15 27C16.0335 27 17.0355 26.8695 17.9925 26.625C17.4722 26.0461 17.0044 25.4222 16.5945 24.7605C16.0575 25.263 15.51 25.5 15 25.5C14.0145 25.5 12.8895 24.615 11.967 22.638C11.6159 21.8692 11.3357 21.0698 11.13 20.25H15.396C15.432 19.734 15.522 19.2315 15.66 18.75H10.809C10.6006 17.5109 10.4972 16.2565 10.5 15C10.5 13.6755 10.6095 12.4125 10.809 11.25H19.191C19.3485 12.1695 19.4505 13.1535 19.4865 14.181C19.9587 13.9553 20.4548 13.7837 20.9655 13.6695C20.9226 12.8591 20.8375 12.0515 20.7105 11.25H24.81C25.161 12.165 25.386 13.14 25.467 14.1585C26.0205 14.418 26.535 14.7465 26.9985 15.135L27 15C27 12.6266 26.2962 10.3066 24.9776 8.33316C23.6591 6.35977 21.7849 4.8217 19.5922 3.91345C17.3995 3.0052 14.9867 2.76756 12.6589 3.23058C10.3312 3.6936 8.19295 4.83649 6.51472 6.51472C4.83649 8.19295 3.6936 10.3312 3.23058 12.6589C2.76756 14.9867 3.0052 17.3995 3.91345 19.5922C4.8217 21.7849 6.35977 23.6591 8.33316 24.9776C10.3066 26.2962 12.6266 27 15 27ZM15 4.50001C15.9855 4.50001 17.1105 5.38501 18.033 7.36201C18.3585 8.06101 18.642 8.86501 18.8715 9.75001H11.1285C11.358 8.86501 11.6415 8.06101 11.9685 7.36201C12.888 5.38501 14.013 4.50001 15 4.50001ZM10.608 6.72751C10.1651 7.69773 9.82181 8.71042 9.58351 9.75001H5.90401C7.17037 7.56131 9.18184 5.90123 11.571 5.07301C11.2095 5.56801 10.887 6.12901 10.608 6.72751ZM9.28801 11.25C9.09387 12.4905 8.99758 13.7444 9.00001 15C9.00001 16.305 9.10051 17.568 9.28951 18.75H5.19001C4.73255 17.5527 4.49867 16.2817 4.50001 15C4.50001 13.68 4.74451 12.414 5.19001 11.25H9.28951H9.28801ZM9.58351 20.25C9.84751 21.3645 10.194 22.383 10.608 23.2725C10.887 23.871 11.2095 24.432 11.571 24.927C9.18184 24.0988 7.17037 22.4387 5.90401 20.25H9.58501H9.58351ZM18.429 5.07301C20.8182 5.90111 22.8297 7.56122 24.096 9.75001H20.415C20.1767 8.71043 19.8334 7.69773 19.3905 6.72751C19.1234 6.14634 18.8009 5.59228 18.4275 5.07301H18.429ZM22.5 15C25.6065 15 28.125 17.5905 28.125 20.7855C28.125 23.181 26.3505 25.6905 22.875 28.371C22.7678 28.4544 22.6358 28.4998 22.5 28.4998C22.3642 28.4998 22.2322 28.4544 22.125 28.371C18.6495 25.6905 16.875 23.181 16.875 20.7855C16.875 17.5905 19.3935 15 22.5 15ZM22.5 18.8565C21.465 18.8565 20.625 19.7205 20.625 20.7855C20.625 21.8505 21.465 22.7145 22.5 22.7145C23.535 22.7145 24.375 21.8505 24.375 20.7855C24.375 19.7205 23.535 18.8565 22.5 18.8565Z" fill="black"/>
</svg>
