<svg width="15" height="14" viewBox="0 0 15 14" fill="none" xmlns="http://www.w3.org/2000/svg">
<path d="M7.42855 1.16663C4.20855 1.16663 1.59521 3.77996 1.59521 6.99996C1.59521 10.22 4.20855 12.8333 7.42855 12.8333H10.3452V11.6666H7.42855C4.89688 11.6666 2.76188 9.53163 2.76188 6.99996C2.76188 4.46829 4.89688 2.33329 7.42855 2.33329C9.96022 2.33329 12.0952 4.46829 12.0952 6.99996V7.83413C12.0952 8.29496 11.681 8.74996 11.2202 8.74996C10.7594 8.74996 10.3452 8.29496 10.3452 7.83413V6.99996C10.3452 5.38996 9.03855 4.08329 7.42855 4.08329C5.81855 4.08329 4.51188 5.38996 4.51188 6.99996C4.51188 8.60996 5.81855 9.91663 7.42855 9.91663C8.23355 9.91663 8.96855 9.58996 9.49355 9.05913C9.87271 9.57829 10.526 9.91663 11.2202 9.91663C12.3694 9.91663 13.2619 8.98329 13.2619 7.83413V6.99996C13.2619 3.77996 10.6485 1.16663 7.42855 1.16663ZM7.42855 8.74996C6.46022 8.74996 5.67855 7.96829 5.67855 6.99996C5.67855 6.03163 6.46022 5.24996 7.42855 5.24996C8.39688 5.24996 9.17855 6.03163 9.17855 6.99996C9.17855 7.96829 8.39688 8.74996 7.42855 8.74996Z" fill="#4B5563"/>
</svg>
