<svg width="46" height="45" viewBox="0 0 46 45" fill="none" xmlns="http://www.w3.org/2000/svg">
<path d="M17.7399 1.875H6.48987C5.49531 1.875 4.54148 2.27009 3.83822 2.97335C3.13496 3.67661 2.73987 4.63044 2.73987 5.625V30C2.73987 30.9946 3.13496 31.9484 3.83822 32.6516C4.54148 33.3549 5.49531 33.75 6.48987 33.75H8.36487V28.125H6.48987V5.625H17.7399V20.625H21.4899V5.625C21.4899 4.63044 21.0948 3.67661 20.3915 2.97335C19.6883 2.27009 18.7344 1.875 17.7399 1.875ZM43.9899 39.375V28.125C43.9899 27.1304 43.5948 26.1766 42.8915 25.4734C42.1883 24.7701 41.2344 24.375 40.2399 24.375H15.8649C14.8703 24.375 13.9165 24.7701 13.2132 25.4734C12.51 26.1766 12.1149 27.1304 12.1149 28.125V39.375C12.1149 40.3696 12.51 41.3234 13.2132 42.0266C13.9165 42.7299 14.8703 43.125 15.8649 43.125H40.2399C41.2344 43.125 42.1883 42.7299 42.8915 42.0266C43.5948 41.3234 43.9899 40.3696 43.9899 39.375ZM17.7399 39.375V28.125H40.2399V39.375H17.7399ZM43.9899 18.75H41.1774C41.1774 13.125 37.7836 8.00625 32.5899 5.79375L30.8649 9.375L27.1149 1.875C31.5904 1.875 35.8826 3.6529 39.0473 6.81757C42.212 9.98225 43.9899 14.2745 43.9899 18.75V18.75Z" fill="white"/>
</svg>
