<svg width="45" height="45" viewBox="0 0 45 45" fill="none" xmlns="http://www.w3.org/2000/svg">
<path d="M38.0625 25.1812C37.5901 25.034 37.0786 25.0795 36.6396 25.3078C36.2005 25.5361 35.8695 25.9287 35.7187 26.4C34.8329 29.1084 33.106 31.4635 30.7893 33.1226C28.4726 34.7818 25.6869 35.6584 22.8375 35.625C19.3132 35.665 15.9168 34.3058 13.3931 31.8454C10.8694 29.385 9.42441 26.0242 9.375 22.5C9.42441 18.9758 10.8694 15.615 13.3931 13.1545C15.9168 10.6941 19.3132 9.33493 22.8375 9.37499C26.0205 9.3673 29.1055 10.4752 31.5562 12.5062L27.4875 11.8312C27.2437 11.7911 26.9943 11.7996 26.7537 11.8562C26.5132 11.9128 26.2862 12.0164 26.0858 12.161C25.8854 12.3056 25.7156 12.4884 25.5861 12.6989C25.4566 12.9094 25.37 13.1434 25.3313 13.3875C25.2911 13.6313 25.2996 13.8807 25.3562 14.1213C25.4128 14.3618 25.5164 14.5888 25.661 14.7892C25.8056 14.9896 25.9884 15.1594 26.1989 15.2889C26.4094 15.4184 26.6434 15.505 26.8875 15.5437L34.8375 16.8562H35.1562C35.3737 16.856 35.5894 16.8179 35.7938 16.7437C35.8624 16.7177 35.9259 16.6796 35.9813 16.6312C36.1157 16.5812 36.242 16.5118 36.3562 16.425L36.525 16.2187C36.525 16.125 36.6938 16.05 36.7688 15.9375C36.8438 15.825 36.7687 15.75 36.8625 15.675C36.9143 15.5658 36.9582 15.453 36.9937 15.3375L38.4 7.83749C38.4468 7.59126 38.4446 7.33823 38.3936 7.09284C38.3426 6.84745 38.2438 6.61451 38.1027 6.40732C37.9617 6.20013 37.7812 6.02274 37.5717 5.88529C37.3621 5.74784 37.1275 5.65302 36.8813 5.60624C36.635 5.55945 36.382 5.56163 36.1366 5.61263C35.8912 5.66364 35.6583 5.76248 35.4511 5.9035C35.0326 6.18833 34.7445 6.62771 34.65 7.12499L34.1437 9.84374C31.005 7.12356 26.991 5.62579 22.8375 5.62499C18.3186 5.58499 13.9684 7.33929 10.7415 10.503C7.51458 13.6666 5.67448 17.9812 5.625 22.5C5.67448 27.0188 7.51458 31.3334 10.7415 34.497C13.9684 37.6607 18.3186 39.415 22.8375 39.375C26.4996 39.4313 30.0831 38.3102 33.0602 36.1769C36.0374 34.0436 38.251 31.0108 39.375 27.525C39.4461 27.2849 39.4684 27.0331 39.4407 26.7842C39.4129 26.5354 39.3355 26.2947 39.2132 26.0762C39.0909 25.8578 38.926 25.666 38.7284 25.5123C38.5308 25.3586 38.3043 25.246 38.0625 25.1812Z" fill="white"/>
</svg>
