<svg width="43" height="42" viewBox="0 0 43 42" fill="none" xmlns="http://www.w3.org/2000/svg">
<path d="M42.3919 40C42.3919 41.1046 41.4965 42 40.3919 42H2.39191C1.28734 42 0.391907 41.1046 0.391907 40V39.3333C0.391907 38.2288 1.28734 37.3333 2.39191 37.3333H40.3919C41.4965 37.3333 42.3919 38.2288 42.3919 39.3333V40ZM12.0586 18.3333C12.0586 17.2288 11.1631 16.3333 10.0586 16.3333H4.72524C3.62067 16.3333 2.72524 17.2288 2.72524 18.3333V30.6667C2.72524 31.7712 3.62067 32.6667 4.72524 32.6667H10.0586C11.1631 32.6667 12.0586 31.7712 12.0586 30.6667V18.3333ZM26.0586 9C26.0586 7.89543 25.1631 7 24.0586 7H18.7252C17.6207 7 16.7252 7.89543 16.7252 9V30.6667C16.7252 31.7712 17.6207 32.6667 18.7252 32.6667H24.0586C25.1631 32.6667 26.0586 31.7712 26.0586 30.6667V9ZM40.0586 2C40.0586 0.89543 39.1631 0 38.0586 0H32.7252C31.6207 0 30.7252 0.895431 30.7252 2V30.6667C30.7252 31.7712 31.6207 32.6667 32.7252 32.6667H38.0586C39.1631 32.6667 40.0586 31.7712 40.0586 30.6667V2Z" fill="white"/>
</svg>
