<svg width="30" height="30" viewBox="0 0 30 30" fill="none" xmlns="http://www.w3.org/2000/svg">
<path fill-rule="evenodd" clip-rule="evenodd" d="M17.8126 3.75C17.564 3.75 17.3255 3.65123 17.1497 3.47541C16.9739 3.2996 16.8751 3.06114 16.8751 2.8125C16.8751 2.56386 16.9739 2.3254 17.1497 2.14959C17.3255 1.97377 17.564 1.875 17.8126 1.875H27.1876C27.4362 1.875 27.6747 1.97377 27.8505 2.14959C28.0263 2.3254 28.1251 2.56386 28.1251 2.8125V12.1875C28.1251 12.4361 28.0263 12.6746 27.8505 12.8504C27.6747 13.0262 27.4362 13.125 27.1876 13.125C26.939 13.125 26.7005 13.0262 26.5247 12.8504C26.3489 12.6746 26.2501 12.4361 26.2501 12.1875V5.07563L18.5082 12.8175C20.0304 14.6797 20.7786 17.0557 20.5981 19.4541C20.4176 21.8525 19.3222 24.0898 17.5385 25.7032C15.7548 27.3167 13.4192 28.1829 11.0148 28.1227C8.6104 28.0624 6.3211 27.0804 4.62039 25.3797C2.91968 23.679 1.93767 21.3897 1.87745 18.9853C1.81724 16.5809 2.68343 14.2453 4.29688 12.4616C5.91032 10.6779 8.1476 9.58252 10.546 9.40203C12.9444 9.22154 15.3204 9.96974 17.1826 11.4919L24.9245 3.75H17.8126ZM11.2501 11.25C9.26099 11.25 7.35333 12.0402 5.94681 13.4467C4.54029 14.8532 3.75011 16.7609 3.75011 18.75C3.75011 20.7391 4.54029 22.6468 5.94681 24.0533C7.35333 25.4598 9.26099 26.25 11.2501 26.25C13.2392 26.25 15.1469 25.4598 16.5534 24.0533C17.9599 22.6468 18.7501 20.7391 18.7501 18.75C18.7501 16.7609 17.9599 14.8532 16.5534 13.4467C15.1469 12.0402 13.2392 11.25 11.2501 11.25Z" fill="#0277BD"/>
</svg>
