<svg width="1024" height="1366" viewBox="0 0 1024 1366" fill="none" xmlns="http://www.w3.org/2000/svg">
<path d="M1024 533C986.3 544.3 948.5 555.7 915.8 544.2C883 532.7 855.1 498.3 827.3 474.9C799.5 451.5 771.6 439 737.3 429C703 419 662.3 411.5 633 391C603.7 370.6 585.8 337.3 568.4 304.5C550.9 271.6 533.9 239.3 530.6 204.4C527.4 169.4 537.9 131.8 534.6 97.4C531.3 62.9 514.1 31.4 497 0H1024V533Z" fill="#FFDFC7" fill-opacity="0.05"/>
<path d="M1024 355.3C998.8 362.9 973.7 370.5 951.8 362.8C930 355.1 911.4 332.2 892.9 316.6C874.3 301 855.7 292.7 832.9 286C810 279.4 782.9 274.3 763.3 260.7C743.8 247.1 731.9 224.8 720.2 203C708.6 181.1 697.3 159.5 695.1 136.2C692.9 112.9 699.9 87.9 697.7 64.9C695.5 41.9 684.1 21 672.7 0H1024V355.3Z" fill="#F99F5C" fill-opacity="0.05"/>
<path d="M1024 177.7C1011.4 181.4 998.8 185.2 987.9 181.4C977 177.6 967.7 166.1 958.4 158.3C949.2 150.5 939.9 146.3 928.4 143C917 139.7 903.4 137.2 893.7 130.3C883.9 123.5 877.9 112.4 872.1 101.5C866.3 90.5 860.6 79.8 859.5 68.1C858.5 56.5 862 43.9 860.9 32.5C859.8 21 854 10.5 848.3 0H1024V177.7Z" fill="#ED7F20" fill-opacity="0.05"/>
<path d="M0 842C36 838.8 71.9 835.6 103 848.1C134.1 860.7 160.3 889.2 192.1 902.2C223.9 915.3 261.3 913 297.2 921.2C333.2 929.3 367.8 948 391 975C414.3 1001.9 426.1 1037.2 447.3 1067.1C468.5 1097 499.1 1121.4 512.6 1153.7C526.1 1186 522.5 1226.1 518.8 1262.8C515.2 1299.5 511.6 1332.7 508 1366H0V842Z" fill="#FFDFC7" fill-opacity="0.05"/>
<path d="M0 1016.7C24 1014.5 47.9 1012.4 68.7 1020.8C89.4 1029.2 106.9 1048.1 128.1 1056.8C149.3 1065.5 174.2 1064 198.2 1069.4C222.1 1074.9 245.2 1087.3 260.7 1105.3C276.2 1123.3 284.1 1146.8 298.2 1166.7C312.4 1186.6 332.8 1202.9 341.7 1224.4C350.7 1246 348.3 1272.7 345.9 1297.2C343.5 1321.7 341.1 1343.8 338.7 1366H0V1016.7Z" fill="#F99F5C" fill-opacity="0.05"/>
<path d="M0 1191.3C12 1190.3 24 1189.2 34.3 1193.4C44.7 1197.6 53.4 1207.1 64 1211.4C74.6 1215.8 87.1 1215 99.1 1217.7C111.1 1220.4 122.6 1226.7 130.3 1235.7C138.1 1244.6 142 1256.4 149.1 1266.4C156.2 1276.3 166.4 1284.5 170.9 1295.2C175.4 1306 174.2 1319.4 172.9 1331.6C171.7 1343.8 170.5 1354.9 169.3 1366H0V1191.3Z" fill="#ED7F20" fill-opacity="0.05"/>
</svg>
