<svg width="30" height="30" viewBox="0 0 30 30" fill="none" xmlns="http://www.w3.org/2000/svg">
<path d="M13.125 5.625C13.125 4.53098 12.6904 3.48177 11.9168 2.70818C11.1432 1.9346 10.094 1.5 9 1.5C7.90598 1.5 6.85677 1.9346 6.08318 2.70818C5.3096 3.48177 4.875 4.53098 4.875 5.625C4.875 6.71902 5.3096 7.76823 6.08318 8.54182C6.85677 9.3154 7.90598 9.75 9 9.75C10.094 9.75 11.1432 9.3154 11.9168 8.54182C12.6904 7.76823 13.125 6.71902 13.125 5.625ZM6.375 5.625C6.375 5.28028 6.4429 4.93894 6.57482 4.62046C6.70673 4.30198 6.90009 4.0126 7.14384 3.76884C7.3876 3.52509 7.67698 3.33173 7.99546 3.19982C8.31394 3.0679 8.65528 3 9 3C9.34472 3 9.68606 3.0679 10.0045 3.19982C10.323 3.33173 10.6124 3.52509 10.8562 3.76884C11.0999 4.0126 11.2933 4.30198 11.4252 4.62046C11.5571 4.93894 11.625 5.28028 11.625 5.625C11.625 6.32119 11.3484 6.98887 10.8562 7.48116C10.3639 7.97344 9.69619 8.25 9 8.25C8.30381 8.25 7.63613 7.97344 7.14384 7.48116C6.65156 6.98887 6.375 6.32119 6.375 5.625Z" fill="black"/>
<path d="M3.75 11.25H10.0245C9.7785 11.715 9.5955 12.219 9.4875 12.75H3.75C3.55109 12.75 3.36032 12.829 3.21967 12.9697C3.07902 13.1103 3 13.3011 3 13.5V14.25C3 16.14 4.6485 18.171 7.644 18.645C7.161 18.975 6.759 19.4145 6.4725 19.926C3.3075 19.0695 1.5 16.6305 1.5 14.25V13.5C1.5 12.9033 1.73705 12.331 2.15901 11.909C2.58097 11.4871 3.15326 11.25 3.75 11.25Z" fill="black"/>
<path d="M11.8184 11.25C12.5744 10.335 13.7189 9.75001 14.9999 9.75001C15.8983 9.74844 16.7724 10.0408 17.489 10.5825C18.2056 11.1241 18.7254 11.8854 18.9689 12.75C19.1861 13.5218 19.1738 14.34 18.9337 15.1049C18.6937 15.8698 18.2361 16.5483 17.6169 17.0576C16.9978 17.5668 16.2438 17.8849 15.4469 17.9728C14.65 18.0608 13.8448 17.9149 13.1294 17.553C12.5787 17.2727 12.0979 16.8722 11.7227 16.3811C11.3475 15.89 11.0874 15.3209 10.9617 14.7158C10.836 14.1108 10.8479 13.4851 10.9964 12.8853C11.145 12.2854 11.4264 11.7265 11.8199 11.25H11.8184ZM12.6284 12.75C12.4807 13.0616 12.3958 13.3993 12.3786 13.7438C12.3613 14.0882 12.4121 14.4327 12.528 14.7575C12.6439 15.0823 12.8226 15.3811 13.054 15.6369C13.2853 15.8926 13.5648 16.1003 13.8765 16.248C14.1881 16.3957 14.5257 16.4807 14.8702 16.4979C15.2146 16.5151 15.5591 16.4644 15.8839 16.3485C16.2087 16.2326 16.5076 16.0538 16.7633 15.8225C17.019 15.5911 17.2267 15.3116 17.3744 15C17.6728 14.3704 17.7089 13.6482 17.4747 12.992C17.2405 12.3359 16.7553 11.7996 16.1257 11.5013C15.4961 11.2029 14.7738 11.1668 14.1177 11.401C13.4616 11.6352 12.9253 12.1204 12.6269 12.75H12.6284Z" fill="black"/>
<path d="M23.5276 19.926C23.2418 19.4142 22.8407 18.9761 22.3561 18.6465C25.3501 18.171 27.0001 16.1385 27.0001 14.25V13.5C27.0001 13.3011 26.921 13.1103 26.7804 12.9697C26.6397 12.829 26.449 12.75 26.2501 12.75H20.5126C20.4066 12.227 20.2262 11.7219 19.9771 11.25H26.2501C26.8468 11.25 27.4191 11.4871 27.841 11.909C28.263 12.331 28.5001 12.9033 28.5001 13.5V14.25C28.5001 16.6305 26.6911 19.068 23.5276 19.926Z" fill="black"/>
<path d="M21.7305 20.055C21.3345 19.71 20.817 19.5 20.25 19.5H9.75001C9.45431 19.4992 9.16137 19.5569 8.88803 19.6697C8.61469 19.7825 8.36634 19.9482 8.15725 20.1573C7.94816 20.3663 7.78246 20.6147 7.66967 20.888C7.55687 21.1614 7.49922 21.4543 7.50001 21.75V22.5C7.50001 25.4565 10.29 28.5 15 28.5C19.71 28.5 22.5 25.4565 22.5 22.5V21.75C22.5 21.075 22.203 20.469 21.7305 20.055ZM9.00001 21.75C9.00001 21.5511 9.07903 21.3603 9.21968 21.2197C9.36033 21.079 9.5511 21 9.75001 21H20.25C20.4489 21 20.6397 21.079 20.7803 21.2197C20.921 21.3603 21 21.5511 21 21.75V22.5C21 24.657 18.852 27 15 27C11.148 27 9.00001 24.657 9.00001 22.5V21.75Z" fill="black"/>
<path d="M21 1.5C22.094 1.5 23.1432 1.9346 23.9168 2.70818C24.6904 3.48177 25.125 4.53098 25.125 5.625C25.125 6.71902 24.6904 7.76823 23.9168 8.54182C23.1432 9.3154 22.094 9.75 21 9.75C19.906 9.75 18.8568 9.3154 18.0832 8.54182C17.3096 7.76823 16.875 6.71902 16.875 5.625C16.875 4.53098 17.3096 3.48177 18.0832 2.70818C18.8568 1.9346 19.906 1.5 21 1.5ZM21 3C20.3038 3 19.6361 3.27656 19.1438 3.76884C18.6516 4.26113 18.375 4.92881 18.375 5.625C18.375 6.32119 18.6516 6.98887 19.1438 7.48116C19.6361 7.97344 20.3038 8.25 21 8.25C21.6962 8.25 22.3639 7.97344 22.8562 7.48116C23.3484 6.98887 23.625 6.32119 23.625 5.625C23.625 4.92881 23.3484 4.26113 22.8562 3.76884C22.3639 3.27656 21.6962 3 21 3Z" fill="black"/>
</svg>
